<svg xmlns="http://www.w3.org/2000/svg" viewBox="0 0 600 420" width="600" height="420" font-family="-apple-system, Helvetica, Arial, sans-serif"><rect x="0" y="0" width="600" height="420" rx="18" fill="#17191d"/><text x="22" y="38" font-size="24" font-weight="700" fill="#b45309" text-anchor="start">Touch</text><circle cx="546" cy="32" r="5.5" fill="#3a3f47"/><circle cx="562" cy="32" r="5.5" fill="#3a3f47"/><circle cx="578" cy="32" r="5.5" fill="#b45309"/><text x="22" y="60" font-size="13" font-weight="400" fill="#9aa1ac" text-anchor="start">Right and hold: hold the note, music.</text><text x="22" y="78" font-size="11.5" font-weight="400" fill="#f2f3f5" text-anchor="start">Swipe right and hold on the Modstrip.</text><rect x="22" y="104" width="300" height="240" rx="22" fill="#1f2329" stroke="#b45309" stroke-width="2"/><rect x="296" y="120" width="14" height="208" rx="7" fill="none" stroke="#b45309" stroke-width="1.2" stroke-dasharray="4 3"/><rect x="24" y="308" width="60" height="34" rx="14" fill="#b45309" opacity="0.28"/><rect x="260" y="308" width="60" height="34" rx="14" fill="#b45309" opacity="0.28"/><text x="172" y="98" font-size="10" font-weight="400" fill="#9aa1ac" text-anchor="middle">fingertip ↑</text><text x="172" y="126" font-size="10.5" font-weight="400" fill="#9aa1ac" text-anchor="middle">swipe</text><text x="172" y="140" font-size="12.5" font-weight="600" fill="#f2f3f5" text-anchor="middle">Volume up</text><text x="172" y="296" font-size="10.5" font-weight="400" fill="#9aa1ac" text-anchor="middle">swipe</text><text x="172" y="310" font-size="12.5" font-weight="600" fill="#f2f3f5" text-anchor="middle">Volume down</text><text x="36" y="184" font-size="10.5" font-weight="400" fill="#9aa1ac" text-anchor="start">swipe</text><text x="73" y="184" font-size="12.5" font-weight="600" fill="#f2f3f5" text-anchor="start">Previous track</text><text x="288" y="184" font-size="12.5" font-weight="600" fill="#f2f3f5" text-anchor="end">Next track</text><text x="210" y="184" font-size="10.5" font-weight="400" fill="#9aa1ac" text-anchor="end">swipe</text><text x="166" y="216" font-size="10.5" font-weight="400" fill="#9aa1ac" text-anchor="end">tap</text><text x="176" y="216" font-size="12.5" font-weight="600" fill="#f2f3f5" text-anchor="start">Play / pause</text><text x="166" y="232" font-size="10.5" font-weight="400" fill="#9aa1ac" text-anchor="end">2×</text><text x="176" y="232" font-size="12.5" font-weight="600" fill="#f2f3f5" text-anchor="start">Mute</text><text x="350" y="118" font-size="10.5" font-weight="700" fill="#9aa1ac" text-anchor="start" letter-spacing="1.2">MODSTRIP</text><text x="350" y="138" font-size="11" font-weight="400" fill="#9aa1ac" text-anchor="start">Hold it while gesturing for the</text><text x="350" y="152" font-size="11" font-weight="400" fill="#9aa1ac" text-anchor="start">Mod set; see the reference sheet.</text><text x="350" y="290" font-size="10.5" font-weight="700" fill="#9aa1ac" text-anchor="start" letter-spacing="1.2">SWITCH MODE</text><rect x="350" y="300" width="4" height="13" rx="2" fill="#3a3f47"/><text x="362" y="310" font-size="10.5" font-weight="400" fill="#9aa1ac" text-anchor="start">← swipe</text><text x="450" y="310" font-size="12" font-weight="500" fill="#f2f3f5" text-anchor="start">Cursor</text><rect x="350" y="318" width="4" height="13" rx="2" fill="#3a3f47"/><text x="362" y="328" font-size="10.5" font-weight="400" fill="#9aa1ac" text-anchor="start">swipe →</text><text x="450" y="328" font-size="12" font-weight="500" fill="#f2f3f5" text-anchor="start">Navigation</text><rect x="350" y="336" width="4" height="13" rx="2" fill="#b45309"/><text x="362" y="346" font-size="10.5" font-weight="400" fill="#9aa1ac" text-anchor="start">swipe → hold</text><text x="450" y="346" font-size="12" font-weight="700" fill="#b45309" text-anchor="start">Touch</text><rect x="350" y="354" width="4" height="13" rx="2" fill="#3a3f47"/><text x="362" y="364" font-size="10.5" font-weight="400" fill="#9aa1ac" text-anchor="start">← swipe hold</text><text x="450" y="364" font-size="12" font-weight="500" fill="#f2f3f5" text-anchor="start">Air</text><text x="22" y="406" font-size="10" font-weight="400" fill="#9aa1ac" text-anchor="start">1× tap + hold reconnects or unlocks · 2× pairs · palm locks</text></svg>
